<svg width="1200" height="720" viewBox="0 0 1200 720" fill="none" xmlns="http://www.w3.org/2000/svg">
  <rect width="1200" height="720" rx="32" fill="#0B1020"/>
  <rect x="96" y="72" width="1008" height="576" rx="28" fill="#111827" stroke="#263244" stroke-width="2"/>
  <text x="144" y="134" fill="#F8FAFC" font-family="Inter, Arial, sans-serif" font-size="34" font-weight="700">Dark theme</text>
  <text x="144" y="170" fill="#94A3B8" font-family="Inter, Arial, sans-serif" font-size="18">Custom background, axis color, and neon line styles</text>
  <rect x="144" y="210" width="912" height="116" rx="18" fill="#0F172A" stroke="#263244"/>
  <rect x="176" y="244" width="5" height="52" rx="2.5" fill="#38BDF8"/>
  <text x="197" y="262" fill="#94A3B8" font-family="Inter, Arial, sans-serif" font-size="15">Growth NAV</text>
  <text x="197" y="294" fill="#F8FAFC" font-family="Inter, Arial, sans-serif" font-size="28" font-weight="700">147.8</text>
  <text x="301" y="294" fill="#22C55E" font-family="Inter, Arial, sans-serif" font-size="18" font-weight="600">+17.4%</text>
  <rect x="542" y="244" width="5" height="52" rx="2.5" fill="#A78BFA"/>
  <text x="563" y="262" fill="#94A3B8" font-family="Inter, Arial, sans-serif" font-size="15">Index NAV</text>
  <text x="563" y="294" fill="#F8FAFC" font-family="Inter, Arial, sans-serif" font-size="28" font-weight="700">139.2</text>
  <text x="667" y="294" fill="#22C55E" font-family="Inter, Arial, sans-serif" font-size="18" font-weight="600">+9.9%</text>
  <line x1="144" y1="389" x2="1056" y2="389" stroke="#263244" stroke-width="2" stroke-dasharray="8 12"/>
  <line x1="144" y1="456" x2="1056" y2="456" stroke="#263244" stroke-width="2" stroke-dasharray="8 12"/>
  <line x1="144" y1="523" x2="1056" y2="523" stroke="#263244" stroke-width="2" stroke-dasharray="8 12"/>
  <path d="M144 528 C 223 494, 276 518, 350 478 C 425 437, 479 458, 548 414 C 629 363, 675 384, 749 344 C 830 300, 910 328, 1056 280" stroke="#38BDF8" stroke-width="7" stroke-linecap="round"/>
  <path d="M144 535 C 225 519, 284 486, 352 501 C 430 517, 493 436, 558 452 C 628 469, 682 405, 756 416 C 850 430, 928 371, 1056 352" stroke="#A78BFA" stroke-width="7" stroke-linecap="round"/>
  <line x1="749" y1="236" x2="749" y2="560" stroke="#CBD5E1" stroke-width="2" opacity="0.18"/>
  <circle cx="749" cy="344" r="12" fill="#111827"/>
  <circle cx="749" cy="344" r="7" fill="#38BDF8"/>
  <circle cx="749" cy="416" r="12" fill="#111827"/>
  <circle cx="749" cy="416" r="7" fill="#A78BFA"/>
  <rect x="690" y="236" width="118" height="58" rx="14" fill="#F8FAFC"/>
  <text x="719" y="272" fill="#0F172A" font-family="Inter, Arial, sans-serif" font-size="19" font-weight="700">Apr 15</text>
  <text x="144" y="596" fill="#94A3B8" font-family="Inter, Arial, sans-serif" font-size="16">Jan</text>
  <text x="356" y="596" fill="#94A3B8" font-family="Inter, Arial, sans-serif" font-size="16">Feb</text>
  <text x="574" y="596" fill="#94A3B8" font-family="Inter, Arial, sans-serif" font-size="16">Mar</text>
  <text x="792" y="596" fill="#94A3B8" font-family="Inter, Arial, sans-serif" font-size="16">Apr</text>
  <text x="1000" y="596" fill="#94A3B8" font-family="Inter, Arial, sans-serif" font-size="16">May</text>
</svg>
