<svg width="1200" height="720" viewBox="0 0 1200 720" fill="none" xmlns="http://www.w3.org/2000/svg">
  <rect width="1200" height="720" rx="32" fill="#ECFDF5"/>
  <rect x="96" y="72" width="1008" height="576" rx="28" fill="#FFFFFF" stroke="#BBF7D0" stroke-width="2"/>
  <text x="144" y="134" fill="#064E3B" font-family="Inter, Arial, sans-serif" font-size="34" font-weight="700">Performance comparison</text>
  <text x="144" y="170" fill="#047857" font-family="Inter, Arial, sans-serif" font-size="18">Green and amber palette for fund vs benchmark views</text>
  <rect x="144" y="210" width="912" height="116" rx="18" fill="#F0FDF4" stroke="#BBF7D0"/>
  <rect x="176" y="244" width="5" height="52" rx="2.5" fill="#059669"/>
  <text x="197" y="262" fill="#047857" font-family="Inter, Arial, sans-serif" font-size="15">Fund</text>
  <text x="197" y="294" fill="#064E3B" font-family="Inter, Arial, sans-serif" font-size="28" font-weight="700">126.4</text>
  <text x="301" y="294" fill="#059669" font-family="Inter, Arial, sans-serif" font-size="18" font-weight="600">+26.4%</text>
  <rect x="542" y="244" width="5" height="52" rx="2.5" fill="#F59E0B"/>
  <text x="563" y="262" fill="#047857" font-family="Inter, Arial, sans-serif" font-size="15">Benchmark</text>
  <text x="563" y="294" fill="#064E3B" font-family="Inter, Arial, sans-serif" font-size="28" font-weight="700">118.6</text>
  <text x="667" y="294" fill="#059669" font-family="Inter, Arial, sans-serif" font-size="18" font-weight="600">+18.6%</text>
  <line x1="144" y1="389" x2="1056" y2="389" stroke="#BBF7D0" stroke-width="2" stroke-dasharray="8 12"/>
  <line x1="144" y1="456" x2="1056" y2="456" stroke="#BBF7D0" stroke-width="2" stroke-dasharray="8 12"/>
  <line x1="144" y1="523" x2="1056" y2="523" stroke="#BBF7D0" stroke-width="2" stroke-dasharray="8 12"/>
  <path d="M144 532 C 213 500, 284 495, 356 470 C 430 444, 489 438, 560 399 C 640 354, 714 365, 790 321 C 878 270, 963 286, 1056 238" stroke="#059669" stroke-width="7" stroke-linecap="round"/>
  <path d="M144 539 C 218 516, 281 520, 359 491 C 426 466, 498 474, 566 438 C 639 398, 709 414, 786 382 C 868 349, 950 351, 1056 318" stroke="#F59E0B" stroke-width="7" stroke-linecap="round"/>
  <circle cx="790" cy="321" r="12" fill="#FFFFFF"/>
  <circle cx="790" cy="321" r="7" fill="#059669"/>
  <circle cx="790" cy="382" r="12" fill="#FFFFFF"/>
  <circle cx="790" cy="382" r="7" fill="#F59E0B"/>
  <text x="144" y="596" fill="#047857" font-family="Inter, Arial, sans-serif" font-size="16">1M</text>
  <text x="360" y="596" fill="#047857" font-family="Inter, Arial, sans-serif" font-size="16">3M</text>
  <text x="578" y="596" fill="#047857" font-family="Inter, Arial, sans-serif" font-size="16">6M</text>
  <text x="792" y="596" fill="#047857" font-family="Inter, Arial, sans-serif" font-size="16">1Y</text>
  <text x="1010" y="596" fill="#047857" font-family="Inter, Arial, sans-serif" font-size="16">All</text>
</svg>
